<svg width="34" height="27" viewBox="0 0 34 27" fill="none" xmlns="http://www.w3.org/2000/svg">
<path d="M5.58675 2.144C6.41875 1.056 7.28275 0.447998 8.17875 0.319996C9.13875 0.191998 9.93875 0.383997 10.5788 0.895994C11.2828 1.344 11.6668 2.048 11.7308 3.008C11.8588 3.904 11.4748 4.896 10.5788 5.984C9.29875 7.584 8.40275 9.184 7.89075 10.784C7.44275 12.384 7.21875 13.824 7.21875 15.104L6.83475 11.936C9.07475 11.936 10.8668 12.576 12.2108 13.856C13.6188 15.136 14.3228 16.864 14.3228 19.04C14.3228 21.088 13.6828 22.784 12.4028 24.128C11.1228 25.408 9.39475 26.048 7.21875 26.048C4.97875 26.048 3.21875 25.28 1.93875 23.744C0.65875 22.208 0.0187501 20.064 0.0187501 17.312C0.0187501 15.776 0.14675 14.208 0.40275 12.608C0.72275 10.944 1.29875 9.248 2.13075 7.51999C2.96275 5.792 4.11475 4 5.58675 2.144ZM24.3068 2.144C25.1388 1.056 26.0028 0.447998 26.8988 0.319996C27.8588 0.191998 28.6588 0.383997 29.2988 0.895994C30.0028 1.344 30.3868 2.048 30.4508 3.008C30.5788 3.904 30.1948 4.896 29.2988 5.984C28.0188 7.584 27.1228 9.184 26.6108 10.784C26.1628 12.384 25.9388 13.824 25.9388 15.104L25.5548 11.936C27.7948 11.936 29.5868 12.576 30.9308 13.856C32.3388 15.136 33.0428 16.864 33.0428 19.04C33.0428 21.088 32.4028 22.784 31.1228 24.128C29.8428 25.408 28.1148 26.048 25.9388 26.048C23.6988 26.048 21.9388 25.28 20.6588 23.744C19.3788 22.208 18.7388 20.064 18.7388 17.312C18.7388 15.776 18.8668 14.208 19.1228 12.608C19.4428 10.944 20.0188 9.248 20.8508 7.51999C21.6828 5.792 22.8348 4 24.3068 2.144Z" fill="black"/>
</svg>